# Blender 3.4.1
# www.blender.org
mtllib Ground.mtl
o Cube
v -0.500000 -0.500000 0.500000
v -0.500000 -0.500000 -0.500000
v 0.500000 -0.500000 0.500000
v 0.500000 -0.500000 -0.500000
v -0.330764 0.500000 0.330764
v -0.500000 0.330764 0.500000
v -0.348682 0.493847 0.348682
v -0.365391 0.484919 0.365391
v -0.381296 0.474627 0.381296
v -0.396522 0.463353 0.396522
v -0.411125 0.451285 0.411125
v -0.425127 0.438523 0.425127
v -0.438523 0.425127 0.438523
v -0.451285 0.411125 0.451285
v -0.463353 0.396522 0.463353
v -0.474627 0.381296 0.474627
v -0.484919 0.365391 0.484919
v -0.493847 0.348682 0.493847
v -0.330764 0.500000 -0.330764
v -0.500000 0.330764 -0.500000
v -0.348682 0.493847 -0.348682
v -0.365391 0.484919 -0.365391
v -0.381296 0.474627 -0.381296
v -0.396522 0.463353 -0.396522
v -0.411125 0.451285 -0.411125
v -0.425127 0.438523 -0.425127
v -0.438523 0.425127 -0.438523
v -0.451285 0.411125 -0.451285
v -0.463353 0.396522 -0.463353
v -0.474627 0.381296 -0.474627
v -0.484919 0.365391 -0.484919
v -0.493847 0.348682 -0.493847
v 0.330764 0.500000 0.330764
v 0.500000 0.330764 0.500000
v 0.348682 0.493847 0.348682
v 0.365391 0.484919 0.365391
v 0.381296 0.474627 0.381296
v 0.396522 0.463353 0.396522
v 0.411125 0.451285 0.411125
v 0.425127 0.438523 0.425127
v 0.438523 0.425127 0.438523
v 0.451285 0.411125 0.451285
v 0.463353 0.396522 0.463353
v 0.474627 0.381296 0.474627
v 0.484919 0.365391 0.484919
v 0.493847 0.348682 0.493847
v 0.330764 0.500000 -0.330764
v 0.500000 0.330764 -0.500000
v 0.348682 0.493847 -0.348682
v 0.365391 0.484919 -0.365391
v 0.381296 0.474627 -0.381296
v 0.396522 0.463353 -0.396522
v 0.411125 0.451285 -0.411125
v 0.425127 0.438523 -0.425127
v 0.438523 0.425127 -0.438523
v 0.451285 0.411125 -0.451285
v 0.463353 0.396522 -0.463353
v 0.474627 0.381296 -0.474627
v 0.484919 0.365391 -0.484919
v 0.493847 0.348682 -0.493847
vn -0.0000 1.0000 -0.0000
vn 1.0000 -0.0000 -0.0000
vn -1.0000 -0.0000 -0.0000
vn -0.0000 -1.0000 -0.0000
vn -0.0000 -0.0000 -1.0000
vn -0.3248 0.9458 -0.0000
vn -0.4713 0.8820 -0.0000
vn -0.5433 0.8395 -0.0000
vn -0.5951 0.8037 -0.0000
vn -0.6370 0.7708 -0.0000
vn -0.6736 0.7391 -0.0000
vn -0.7071 0.7071 -0.0000
vn -0.7391 0.6736 -0.0000
vn -0.7708 0.6370 -0.0000
vn -0.8037 0.5951 -0.0000
vn -0.8395 0.5433 -0.0000
vn -0.8820 0.4713 -0.0000
vn -0.9458 0.3248 -0.0000
vn -0.0000 0.9458 -0.3248
vn -0.0000 0.8820 -0.4713
vn -0.0000 0.8395 -0.5433
vn -0.0000 0.8037 -0.5951
vn -0.0000 0.7708 -0.6370
vn -0.0000 0.7391 -0.6736
vn -0.0000 0.7071 -0.7071
vn -0.0000 0.6736 -0.7391
vn -0.0000 0.6370 -0.7708
vn -0.0000 0.5951 -0.8037
vn -0.0000 0.5433 -0.8395
vn -0.0000 0.4713 -0.8820
vn -0.0000 0.3248 -0.9458
vn 0.3248 0.9458 -0.0000
vn 0.4713 0.8820 -0.0000
vn 0.5433 0.8395 -0.0000
vn 0.5951 0.8037 -0.0000
vn 0.6370 0.7708 -0.0000
vn 0.6736 0.7391 -0.0000
vn 0.7071 0.7071 -0.0000
vn 0.7391 0.6736 -0.0000
vn 0.7708 0.6370 -0.0000
vn 0.8037 0.5951 -0.0000
vn 0.8395 0.5433 -0.0000
vn 0.8820 0.4713 -0.0000
vn 0.9458 0.3248 -0.0000
vn -0.0000 0.9458 0.3248
vn -0.0000 0.8820 0.4713
vn -0.0000 0.8395 0.5433
vn -0.0000 0.8037 0.5951
vn -0.0000 0.7708 0.6370
vn -0.0000 0.7391 0.6736
vn -0.0000 0.7071 0.7071
vn -0.0000 0.6736 0.7391
vn -0.0000 0.6370 0.7708
vn -0.0000 0.5951 0.8037
vn -0.0000 0.5433 0.8395
vn -0.0000 0.4713 0.8820
vn -0.0000 0.3248 0.9458
vn -0.0000 -0.0000 1.0000
vt 0.375000 0.000000
vt 0.125000 0.750000
vt 0.375000 1.000000
vt 0.125000 0.500000
vt 0.375000 0.250000
vt 0.375000 0.750000
vt 0.375000 0.500000
vt 0.832691 0.707691
vt 0.582691 0.000000
vt 0.582691 1.000000
vt 0.837171 0.712171
vt 0.841348 0.716348
vt 0.845324 0.720324
vt 0.849131 0.724131
vt 0.852781 0.727781
vt 0.856282 0.731282
vt 0.875000 0.734631
vt 0.625000 0.015369
vt 0.859631 0.750000
vt 0.625000 0.984631
vt 0.602781 0.012179
vt 0.602781 0.987821
vt 0.599131 0.009162
vt 0.599131 0.990838
vt 0.595324 0.006343
vt 0.595324 0.993657
vt 0.591348 0.003770
vt 0.591348 0.996230
vt 0.587171 0.001538
vt 0.587171 0.998462
vt 0.832691 0.542309
vt 0.582691 0.250000
vt 0.837171 0.537829
vt 0.841348 0.533652
vt 0.845324 0.529676
vt 0.849131 0.525869
vt 0.852781 0.522219
vt 0.856282 0.518718
vt 0.875000 0.515369
vt 0.625000 0.234631
vt 0.859631 0.500000
vt 0.625000 0.265369
vt 0.602781 0.237821
vt 0.602781 0.262179
vt 0.599131 0.240838
vt 0.599131 0.259162
vt 0.595324 0.243657
vt 0.595324 0.256343
vt 0.591348 0.246230
vt 0.591348 0.253770
vt 0.587171 0.248462
vt 0.587171 0.251538
vt 0.667309 0.707691
vt 0.582691 0.750000
vt 0.662829 0.712171
vt 0.658652 0.716348
vt 0.654676 0.720324
vt 0.650869 0.724131
vt 0.647219 0.727781
vt 0.643718 0.731282
vt 0.606282 0.734631
vt 0.640369 0.750000
vt 0.625000 0.765369
vt 0.602781 0.737821
vt 0.602781 0.762179
vt 0.599131 0.740838
vt 0.599131 0.759162
vt 0.595324 0.743657
vt 0.595324 0.756343
vt 0.591348 0.746230
vt 0.591348 0.753770
vt 0.587171 0.748462
vt 0.587171 0.751538
vt 0.667309 0.542309
vt 0.582691 0.500000
vt 0.662829 0.537829
vt 0.658652 0.533652
vt 0.654676 0.529676
vt 0.650869 0.525869
vt 0.647219 0.522219
vt 0.643718 0.518718
vt 0.640369 0.500000
vt 0.625000 0.484631
vt 0.606282 0.515369
vt 0.602781 0.487821
vt 0.602781 0.512179
vt 0.599131 0.490838
vt 0.599131 0.509162
vt 0.595324 0.493657
vt 0.595324 0.506343
vt 0.591348 0.496230
vt 0.591348 0.503770
vt 0.587171 0.498462
vt 0.587171 0.501538
s 0
usemtl Material.001
f 4/7/2 48/75/2 34/54/2 3/6/2
f 1/1/3 6/9/3 20/32/3 2/5/3
f 2/4/4 4/7/4 3/6/4 1/2/4
f 2/5/5 20/32/5 48/75/5 4/7/5
f 3/6/58 34/54/58 6/10/58 1/3/58
usemtl Material.002
f 47/74/1 19/31/1 5/8/1 33/53/1
f 5/8/6 19/31/6 21/33/6 7/11/6
f 7/11/7 21/33/7 22/34/7 8/12/7
f 8/12/8 22/34/8 23/35/8 9/13/8
f 9/13/9 23/35/9 24/36/9 10/14/9
f 10/14/10 24/36/10 25/37/10 11/15/10
f 11/15/11 25/37/11 26/38/11 12/16/11
f 12/16/12 26/38/12 27/39/12 13/17/12
f 13/18/13 27/40/13 28/43/13 14/21/13
f 14/21/14 28/43/14 29/45/14 15/23/14
f 15/23/15 29/45/15 30/47/15 16/25/15
f 16/25/16 30/47/16 31/49/16 17/27/16
f 17/27/17 31/49/17 32/51/17 18/29/17
f 18/29/18 32/51/18 20/32/18 6/9/18
f 19/31/19 47/74/19 49/76/19 21/33/19
f 21/33/20 49/76/20 50/77/20 22/34/20
f 22/34/21 50/77/21 51/78/21 23/35/21
f 23/35/22 51/78/22 52/79/22 24/36/22
f 24/36/23 52/79/23 53/80/23 25/37/23
f 25/37/24 53/80/24 54/81/24 26/38/24
f 26/38/25 54/81/25 55/82/25 27/41/25
f 27/42/26 55/83/26 56/85/26 28/44/26
f 28/44/27 56/85/27 57/87/27 29/46/27
f 29/46/28 57/87/28 58/89/28 30/48/28
f 30/48/29 58/89/29 59/91/29 31/50/29
f 31/50/30 59/91/30 60/93/30 32/52/30
f 32/52/31 60/93/31 48/75/31 20/32/31
f 47/74/32 33/53/32 35/55/32 49/76/32
f 49/76/33 35/55/33 36/56/33 50/77/33
f 50/77/34 36/56/34 37/57/34 51/78/34
f 51/78/35 37/57/35 38/58/35 52/79/35
f 52/79/36 38/58/36 39/59/36 53/80/36
f 53/80/37 39/59/37 40/60/37 54/81/37
f 54/81/38 40/60/38 41/61/38 55/84/38
f 55/84/39 41/61/39 42/64/39 56/86/39
f 56/86/40 42/64/40 43/66/40 57/88/40
f 57/88/41 43/66/41 44/68/41 58/90/41
f 58/90/42 44/68/42 45/70/42 59/92/42
f 59/92/43 45/70/43 46/72/43 60/94/43
f 60/94/44 46/72/44 34/54/44 48/75/44
f 33/53/45 5/8/45 7/11/45 35/55/45
f 35/55/46 7/11/46 8/12/46 36/56/46
f 36/56/47 8/12/47 9/13/47 37/57/47
f 37/57/48 9/13/48 10/14/48 38/58/48
f 38/58/49 10/14/49 11/15/49 39/59/49
f 39/59/50 11/15/50 12/16/50 40/60/50
f 40/60/51 12/16/51 13/19/51 41/62/51
f 41/63/52 13/20/52 14/22/52 42/65/52
f 42/65/53 14/22/53 15/24/53 43/67/53
f 43/67/54 15/24/54 16/26/54 44/69/54
f 44/69/55 16/26/55 17/28/55 45/71/55
f 45/71/56 17/28/56 18/30/56 46/73/56
f 46/73/57 18/30/57 6/10/57 34/54/57
