# Blender 3.4.1
# www.blender.org
mtllib Ground.mtl
o Cube
v -0.480000 -0.500000 0.600000
v -0.600000 -0.500000 0.480000
v -0.511058 -0.500000 0.595911
v -0.540000 -0.500000 0.583923
v -0.564853 -0.500000 0.564853
v -0.583923 -0.500000 0.540000
v -0.595911 -0.500000 0.511058
v -0.600000 0.500000 0.480000
v -0.480000 0.500000 0.600000
v -0.595911 0.500000 0.511058
v -0.583923 0.500000 0.540000
v -0.564853 0.500000 0.564853
v -0.540000 0.500000 0.583923
v -0.511058 0.500000 0.595911
v -0.600000 -0.500000 -0.480000
v -0.480000 -0.500000 -0.600000
v -0.595911 -0.500000 -0.511058
v -0.583923 -0.500000 -0.540000
v -0.564853 -0.500000 -0.564853
v -0.540000 -0.500000 -0.583923
v -0.511058 -0.500000 -0.595911
v -0.480000 0.500000 -0.600000
v -0.600000 0.500000 -0.480000
v -0.511058 0.500000 -0.595911
v -0.540000 0.500000 -0.583923
v -0.564853 0.500000 -0.564853
v -0.583923 0.500000 -0.540000
v -0.595911 0.500000 -0.511058
v 0.600000 -0.500000 0.480000
v 0.480000 -0.500000 0.600000
v 0.595911 -0.500000 0.511058
v 0.583923 -0.500000 0.540000
v 0.564853 -0.500000 0.564853
v 0.540000 -0.500000 0.583923
v 0.511058 -0.500000 0.595911
v 0.480000 0.500000 0.600000
v 0.600000 0.500000 0.480000
v 0.511058 0.500000 0.595911
v 0.540000 0.500000 0.583923
v 0.564853 0.500000 0.564853
v 0.583923 0.500000 0.540000
v 0.595911 0.500000 0.511058
v 0.480000 -0.500000 -0.600000
v 0.600000 -0.500000 -0.480000
v 0.511058 -0.500000 -0.595911
v 0.540000 -0.500000 -0.583923
v 0.564853 -0.500000 -0.564853
v 0.583923 -0.500000 -0.540000
v 0.595911 -0.500000 -0.511058
v 0.600000 0.500000 -0.480000
v 0.480000 0.500000 -0.600000
v 0.595911 0.500000 -0.511058
v 0.583923 0.500000 -0.540000
v 0.564853 0.500000 -0.564853
v 0.540000 0.500000 -0.583923
v 0.511058 0.500000 -0.595911
vn -0.0000 -0.0000 1.0000
vn 1.0000 -0.0000 -0.0000
vn -0.0000 1.0000 -0.0000
vn -1.0000 -0.0000 -0.0000
vn -0.0000 -0.0000 -1.0000
vn -0.1305 -0.0000 0.9914
vn -0.3827 -0.0000 0.9239
vn -0.6088 -0.0000 0.7934
vn -0.7934 -0.0000 0.6088
vn -0.9239 -0.0000 0.3827
vn -0.9914 -0.0000 0.1305
vn -0.1305 -0.0000 -0.9914
vn -0.3827 -0.0000 -0.9239
vn -0.6088 -0.0000 -0.7934
vn -0.7934 -0.0000 -0.6088
vn -0.9239 -0.0000 -0.3827
vn -0.9914 -0.0000 -0.1305
vn 0.9914 -0.0000 -0.1305
vn 0.9239 -0.0000 -0.3827
vn 0.7934 -0.0000 -0.6088
vn 0.6088 -0.0000 -0.7934
vn 0.3827 -0.0000 -0.9239
vn 0.1305 -0.0000 -0.9914
vn 0.1305 -0.0000 0.9914
vn 0.3827 -0.0000 0.9239
vn 0.6088 -0.0000 0.7934
vn 0.7934 -0.0000 0.6088
vn 0.9239 -0.0000 0.3827
vn 0.9914 -0.0000 0.1305
vn -0.0000 -1.0000 -0.0000
vt 0.375000 0.975000
vt 0.150000 0.750000
vt 0.375000 0.025000
vt 0.125000 0.725000
vt 0.375000 0.981470
vt 0.143530 0.749148
vt 0.375000 0.987500
vt 0.137500 0.746651
vt 0.375000 1.000000
vt 0.375000 0.000000
vt 0.132322 0.742678
vt 0.375000 0.012500
vt 0.128349 0.737500
vt 0.375000 0.018530
vt 0.125852 0.731470
vt 0.875000 0.725000
vt 0.625000 0.025000
vt 0.850000 0.750000
vt 0.625000 0.975000
vt 0.874148 0.731470
vt 0.625000 0.018530
vt 0.871651 0.737500
vt 0.625000 0.012500
vt 0.867678 0.742678
vt 0.625000 1.000000
vt 0.625000 0.000000
vt 0.862500 0.746651
vt 0.625000 0.987500
vt 0.856470 0.749148
vt 0.625000 0.981470
vt 0.375000 0.225000
vt 0.125000 0.525000
vt 0.375000 0.275000
vt 0.150000 0.500000
vt 0.375000 0.231470
vt 0.125852 0.518530
vt 0.375000 0.237500
vt 0.128349 0.512500
vt 0.375000 0.250000
vt 0.132322 0.507322
vt 0.375000 0.262500
vt 0.137500 0.503349
vt 0.375000 0.268530
vt 0.143530 0.500852
vt 0.850000 0.500000
vt 0.625000 0.275000
vt 0.875000 0.525000
vt 0.625000 0.225000
vt 0.856470 0.500852
vt 0.625000 0.268530
vt 0.862500 0.503349
vt 0.625000 0.262500
vt 0.867678 0.507322
vt 0.625000 0.250000
vt 0.871651 0.512500
vt 0.625000 0.237500
vt 0.874148 0.518529
vt 0.625000 0.231470
vt 0.375000 0.725000
vt 0.375000 0.775000
vt 0.350000 0.750000
vt 0.375000 0.731470
vt 0.374148 0.731470
vt 0.375000 0.737500
vt 0.371651 0.737500
vt 0.375000 0.750000
vt 0.367678 0.742678
vt 0.375000 0.762500
vt 0.362500 0.746651
vt 0.375000 0.768530
vt 0.356470 0.749148
vt 0.650000 0.750000
vt 0.625000 0.775000
vt 0.625000 0.725000
vt 0.643530 0.749148
vt 0.625000 0.768530
vt 0.637500 0.746651
vt 0.625000 0.762500
vt 0.632322 0.742678
vt 0.625000 0.750000
vt 0.628349 0.737500
vt 0.625000 0.737500
vt 0.625852 0.731470
vt 0.625000 0.731470
vt 0.375000 0.475000
vt 0.350000 0.500000
vt 0.375000 0.525000
vt 0.375000 0.481470
vt 0.356470 0.500852
vt 0.375000 0.487500
vt 0.362500 0.503349
vt 0.375000 0.500000
vt 0.367678 0.507322
vt 0.375000 0.512500
vt 0.371651 0.512500
vt 0.375000 0.518530
vt 0.374148 0.518529
vt 0.625000 0.525000
vt 0.650000 0.500000
vt 0.625000 0.475000
vt 0.625852 0.518530
vt 0.625000 0.518530
vt 0.628349 0.512500
vt 0.625000 0.512500
vt 0.632322 0.507322
vt 0.625000 0.500000
vt 0.637500 0.503349
vt 0.625000 0.487500
vt 0.643530 0.500852
vt 0.625000 0.481470
s 0
usemtl Material.001
f 30/60/1 36/73/1 9/19/1 1/1/1
f 44/87/2 50/98/2 37/74/2 29/59/2
f 2/3/4 8/17/4 23/48/4 15/31/4
f 16/33/5 22/46/5 51/100/5 43/85/5
f 1/1/6 9/19/6 14/30/6 3/5/6
f 3/5/7 14/30/7 13/28/7 4/7/7
f 4/7/8 13/28/8 12/25/8 5/9/8
f 5/10/9 12/26/9 11/23/9 6/12/9
f 6/12/10 11/23/10 10/21/10 7/14/10
f 7/14/11 10/21/11 8/17/11 2/3/11
f 22/46/12 16/33/12 21/43/12 24/50/12
f 24/50/13 21/43/13 20/41/13 25/52/13
f 25/52/14 20/41/14 19/39/14 26/54/14
f 26/54/15 19/39/15 18/37/15 27/56/15
f 27/56/16 18/37/16 17/35/16 28/58/16
f 28/58/17 17/35/17 15/31/17 23/48/17
f 50/98/18 44/87/18 49/96/18 52/102/18
f 52/102/19 49/96/19 48/94/19 53/104/19
f 53/104/20 48/94/20 47/92/20 54/106/20
f 54/106/21 47/92/21 46/90/21 55/108/21
f 55/108/22 46/90/22 45/88/22 56/110/22
f 56/110/23 45/88/23 43/85/23 51/100/23
f 36/73/24 30/60/24 35/70/24 38/76/24
f 38/76/25 35/70/25 34/68/25 39/78/25
f 39/78/26 34/68/26 33/66/26 40/80/26
f 40/80/27 33/66/27 32/64/27 41/82/27
f 41/82/28 32/64/28 31/62/28 42/84/28
f 42/84/29 31/62/29 29/59/29 37/74/29
f 15/32/30 17/36/30 18/38/30 19/40/30 20/42/30 21/44/30 16/34/30 43/86/30 45/89/30 46/91/30 47/93/30 48/95/30 49/97/30 44/87/30 29/59/30 31/63/30 32/65/30 33/67/30 34/69/30 35/71/30 30/61/30 1/2/30 3/6/30 4/8/30 5/11/30 6/13/30 7/15/30 2/4/30
usemtl Material.002
f 50/98/3 52/101/3 53/103/3 54/105/3 55/107/3 56/109/3 51/99/3 22/45/3 24/49/3 25/51/3 26/53/3 27/55/3 28/57/3 23/47/3 8/16/3 10/20/3 11/22/3 12/24/3 13/27/3 14/29/3 9/18/3 36/72/3 38/75/3 39/77/3 40/79/3 41/81/3 42/83/3 37/74/3
