# Blender 3.4.1
# www.blender.org
mtllib Lightning.mtl
o Plane
v 0.223404 -0.004896 0.063254
v -0.588618 -0.104597 0.605983
v 0.992447 -0.104481 -0.264803
v 1.042161 -0.004896 -0.386331
v 1.042161 -0.004896 -0.764513
v 0.993789 -0.104556 -1.000000
v 1.569961 -0.180802 0.527439
v 1.530736 -0.069627 0.284859
v 1.530736 -0.069627 -0.102977
v 1.568968 -0.180787 -0.220611
v 3.100468 -0.127780 -1.304212
v 2.319935 -0.042212 -0.665343
v -0.588618 -0.125403 0.605983
v 0.152135 -0.233045 0.084256
v 1.012567 -0.232718 -0.393154
v 0.990970 -0.124920 -0.264803
v 0.992572 -0.125040 -1.000000
v 1.014176 -0.232823 -0.794888
v 1.534798 -0.301552 0.316683
v 1.569049 -0.201233 0.527439
v 1.567867 -0.201142 -0.220611
v 1.533606 -0.301493 -0.093248
v 2.379195 -0.272616 -0.687864
v 3.101191 -0.148591 -1.304212
vn -0.7123 0.0210 -0.7016
vn -0.8049 0.0471 0.5916
vn 0.7672 -0.0035 0.6413
vn -0.1309 -0.9914 -0.0000
vn 0.0340 -0.9994 -0.0002
vn -0.0000 1.0000 -0.0000
vn 0.1313 0.9913 -0.0000
vn 0.8016 -0.0455 -0.5961
vn -0.0347 0.9994 -0.0000
vn -0.5775 0.0053 -0.8164
vn 0.0005 -1.0000 0.0003
vn 0.3698 0.6414 0.6722
vn -0.3196 0.8935 -0.3154
vn -0.4858 0.7625 0.4274
vn 0.6389 0.6523 -0.4078
vn 0.3692 0.8677 0.3330
vn -0.5019 0.5323 -0.6817
vn 0.3546 -0.6804 0.6413
vn -0.3969 -0.8307 -0.3904
vn -0.6503 -0.6364 0.4148
vn 0.5035 -0.7408 -0.4446
vn 0.4286 -0.8391 0.3350
vn -0.4175 -0.6607 -0.6239
vn 0.4825 -0.0173 0.8757
vt 0.393831 0.193860
vt 0.000000 0.000000
vt 1.000000 0.000000
vt 1.000000 0.195124
vt 1.000000 0.800125
vt 1.000000 1.000000
vt 1.000000 0.000000
vt 1.000000 0.195555
vt 1.000000 0.805340
vt 1.000000 1.000000
vt 0.000000 0.000000
vt 0.390221 0.196447
vt 0.000000 0.000000
vt 0.392161 0.193189
vt 1.000000 0.194395
vt 1.000000 0.000000
vt 1.000000 1.000000
vt 1.000000 0.801232
vt 1.000000 0.196318
vt 1.000000 0.000000
vt 1.000000 1.000000
vt 1.000000 0.804896
vt 0.391251 0.197093
vt 0.000000 0.000000
s 0
f 2/2/1 6/6/1 17/17/1 13/13/1
f 7/7/2 3/3/2 16/16/2 20/20/2
f 11/11/3 7/7/3 20/20/3 24/24/3
f 18/18/4 22/22/4 19/19/4 15/15/4
f 22/22/5 23/23/5 19/19/5
f 4/4/6 5/5/6 1/1/6
f 5/5/7 4/4/7 8/8/7 9/9/7
f 6/6/8 10/10/8 21/21/8 17/17/8
f 9/9/9 8/8/9 12/12/9
f 10/10/10 11/11/10 24/24/10 21/21/10
f 15/15/11 14/14/11 18/18/11
f 2/2/12 3/3/12 4/4/12 1/1/12
f 1/1/13 5/5/13 6/6/13 2/2/13
f 3/3/14 7/7/14 8/8/14 4/4/14
f 10/10/15 6/6/15 5/5/15 9/9/15
f 7/7/16 11/11/16 12/12/16 8/8/16
f 11/11/17 10/10/17 9/9/17 12/12/17
f 14/14/18 15/15/18 16/16/18 13/13/18
f 13/13/19 17/17/19 18/18/19 14/14/19
f 15/15/20 19/19/20 20/20/20 16/16/20
f 22/22/21 18/18/21 17/17/21 21/21/21
f 19/19/22 23/23/22 24/24/22 20/20/22
f 23/23/23 22/22/23 21/21/23 24/24/23
f 3/3/24 2/2/24 13/13/24 16/16/24
